<svg width="83" height="54" viewBox="0 0 83 54" fill="none" xmlns="http://www.w3.org/2000/svg">
<g clip-path="url(#clip0)">
<path fill-rule="evenodd" clip-rule="evenodd" d="M48.5045 44.1718C48.5045 44.1718 50.7471 37.8489 66.0987 39.0422C81.4503 40.2354 83.0006 40.9206 83.0006 40.9206C83.0006 40.9206 59.5439 61.0803 48.5045 51.3412C48.5045 51.3412 59.0262 53.3914 66.0987 44.6759C66.0987 44.6759 63.6076 43.2821 59.2355 43.0431C57.4601 42.9544 55.6808 43.1024 53.945 43.4832C52.159 43.8914 50.3365 44.1221 48.5045 44.1718V44.1718Z" fill="#F1AD32"/>
<path fill-rule="evenodd" clip-rule="evenodd" d="M45.4874 38.4059C45.4874 38.4059 50.5932 41.5015 60.3851 32.0658C70.177 22.6301 69.7438 19.8947 69.7438 19.8947C69.7438 19.8947 43.9253 21.4424 41.4247 33.4625C41.4247 33.4625 47.4395 26.1453 57.1939 28.1827C56.3083 30.0842 55.0288 31.779 53.4391 33.1562C52.2803 34.2094 50.9847 35.1038 49.5869 35.8155C48.137 36.5415 46.7637 37.4092 45.4874 38.4059V38.4059Z" fill="#F1AD32"/>
<path fill-rule="evenodd" clip-rule="evenodd" d="M31.5858 23.4364C31.5858 23.4364 28.6644 19.4983 36.2232 12.1305C43.782 4.7628 46.6968 2.54309 46.6968 2.54309C46.6968 2.54309 45.6704 16.2404 42.4041 22.7489C41.8718 23.7173 41.1748 24.5869 40.344 25.3193C38.9728 26.5225 38.801 27.3756 38.801 27.3756C38.801 27.3756 37.9391 25.6628 39.8342 19.4983C41.7292 13.3338 40.5231 12.3023 37.6017 15.7319C34.6802 19.1615 32.6201 21.0377 31.5858 23.4364Z" fill="#F1AD32"/>
<path fill-rule="evenodd" clip-rule="evenodd" d="M24.1328 21.8414C24.1328 21.8414 30.0367 16.8896 21.1772 0C21.1772 0 12.3171 15.0139 18.047 21.1545C18.047 21.1545 19.2597 12.7953 21.0025 10.9196C21.0025 10.9196 23.4354 11.6043 23.7841 16.7179C23.7852 16.7284 23.7852 21.5046 24.1328 21.8414Z" fill="#F1AD32"/>
<path fill-rule="evenodd" clip-rule="evenodd" d="M41.4695 50.5859C41.4695 50.5859 45.0939 34.9607 33.8737 27.7552C33.8737 27.7552 24.3717 19.6878 13.1516 25.351C11.6655 26.3632 10.2785 27.5118 9.00892 28.7817C7.6299 30.3251 7.45641 30.4968 6.76354 30.4968C6.76354 30.4968 5.72368 32.5564 5.89718 32.901C6.07068 33.2456 7.27396 33.9347 9.00892 32.2119C10.7439 30.489 16.0898 25.1693 22.653 27.0589C29.2162 28.9484 39.4043 32.5492 35.9529 49.545C35.9378 49.5527 37.6638 51.957 41.4695 50.5859Z" fill="#F1AD32"/>
<path fill-rule="evenodd" clip-rule="evenodd" d="M4.01448 18.4096C4.01448 18.4096 7.10998 18.9226 7.96459 21.8142C8.2502 22.9491 8.62444 24.0601 9.08392 25.1371C9.08392 25.1371 12.1794 22.4089 7.53981 16.2761C2.90018 10.1432 0.319007 7.92798 0.319007 7.92798C0.319007 7.92798 -1.74224 22.5801 4.61388 26.327C4.61388 26.327 3.24214 21.7253 4.01448 18.4096Z" fill="#F1AD32"/>
<path fill-rule="evenodd" clip-rule="evenodd" d="M14.2676 34.8224C14.2676 34.8224 15.8615 33.8071 12.1078 34.0338C8.35413 34.2606 4.14377 37.3128 3.11623 43.7513C2.08868 50.1898 6.53019 49.1744 6.53019 49.1744C6.53019 49.1744 10.5122 49.1744 15.1792 40.0244C19.8463 30.8743 21.4402 27.2552 23.1433 25.2239C24.8463 23.1926 27.2395 20.5894 28.8334 20.9295C28.8334 20.9295 29.5184 21.4964 28.4909 22.399C28.4909 22.399 28.0342 22.399 28.0342 21.8321C28.0342 21.8321 24.0522 22.5123 22.2299 30.9827C22.2299 30.9827 21.2074 38.3287 21.0932 39.004C21.0932 39.004 24.8469 31.2094 29.2856 27.1418C33.7243 23.0742 37.3638 21.1518 39.8661 20.476C39.8661 20.476 41.2317 20.1359 41.2317 20.9295C41.2317 21.7231 40.2091 21.9449 40.2091 21.9449C40.2091 21.9449 40.3211 21.0429 39.415 21.378C38.5089 21.7131 30.3143 25.2189 27.9211 32.1109C27.9211 32.1109 24.0533 40.0188 25.8705 46.1222C27.6878 52.2255 33.8346 54.8237 43.5061 45.7821L43.9628 46.1222C43.9628 46.1222 38.0444 52.4473 31.3317 52.5612C31.3317 52.5612 19.2715 49.6229 26.3272 32.451C26.3272 32.451 23.0252 35.1626 18.3632 47.0247L17.569 46.6846C17.569 46.6846 19.3913 40.0188 19.6196 37.534C19.848 35.0492 20.9852 31.544 21.2136 30.4147C21.4419 29.2854 17.9115 37.3061 14.6095 42.8437C14.6095 42.8437 9.60498 51.6587 4.47957 50.0764C-0.64584 48.4942 2.99981 40.0171 2.99981 40.0171C2.99981 40.0171 5.73042 34.4806 11.7631 33.2369C11.7631 33.2369 15.5167 32.5566 16.2018 33.9171C16.8868 35.2776 14.3795 35.2732 14.3795 35.2732L14.2676 34.8224Z" fill="#339CFE"/>
</g>
<defs>
<clipPath id="clip0">
<rect width="83" height="54" fill="white"/>
</clipPath>
</defs>
</svg>
