<svg width="448" height="310" viewBox="0 0 448 310" fill="none" xmlns="http://www.w3.org/2000/svg">
<g opacity="0.2">
<path fill-rule="evenodd" clip-rule="evenodd" d="M186.213 253.583C186.213 253.583 174.115 217.284 91.2935 224.134C8.47231 230.985 0.108658 234.919 0.108658 234.919C0.108658 234.919 126.656 350.653 186.213 294.741C186.213 294.741 129.449 306.511 91.2935 256.477C91.2935 256.477 104.733 248.475 128.32 247.103C137.898 246.594 147.498 247.444 156.862 249.63C166.498 251.973 176.33 253.298 186.213 253.583V253.583Z" fill="white"/>
<path fill-rule="evenodd" clip-rule="evenodd" d="M202.49 220.483C202.49 220.483 174.944 238.254 122.117 184.085C69.2904 129.916 71.6274 114.212 71.6274 114.212C71.6274 114.212 210.917 123.098 224.407 192.103C224.407 192.103 191.958 150.096 139.334 161.793C144.111 172.709 151.014 182.438 159.591 190.345C165.842 196.391 172.832 201.526 180.373 205.612C188.195 209.779 195.604 214.761 202.49 220.483Z" fill="white"/>
<path fill-rule="evenodd" clip-rule="evenodd" d="M277.489 134.544C277.489 134.544 293.25 111.936 252.47 69.6388C211.69 27.3416 195.966 14.5985 195.966 14.5985C195.966 14.5985 201.503 93.2329 219.124 130.597C221.996 136.157 225.756 141.149 230.238 145.354C237.636 152.261 238.563 157.159 238.563 157.159C238.563 157.159 243.213 147.326 232.989 111.936C222.766 76.5463 229.272 70.6247 245.033 90.3136C260.794 110.002 271.909 120.774 277.489 134.544Z" fill="white"/>
<path fill-rule="evenodd" clip-rule="evenodd" d="M317.698 125.389C317.698 125.389 285.847 96.961 333.644 6.10352e-05C333.644 6.10352e-05 381.443 86.1928 350.531 121.445C350.531 121.445 343.988 73.4562 334.586 62.688C334.586 62.688 321.46 66.6188 319.579 95.9751C319.573 96.0357 319.573 123.455 317.698 125.389Z" fill="white"/>
<path fill-rule="evenodd" clip-rule="evenodd" d="M224.166 290.406C224.166 290.406 204.613 200.703 265.145 159.338C265.145 159.338 316.408 113.024 376.94 145.536C384.957 151.346 392.44 157.941 399.29 165.231C406.729 174.091 407.665 175.077 411.403 175.077C411.403 175.077 417.013 186.901 416.077 188.879C415.141 190.857 408.65 194.814 399.29 184.923C389.93 175.032 361.089 144.492 325.68 155.34C290.272 166.188 235.308 186.86 253.928 284.43C254.01 284.474 244.698 298.277 224.166 290.406Z" fill="white"/>
<path fill-rule="evenodd" clip-rule="evenodd" d="M426.234 105.686C426.234 105.686 409.533 108.631 404.923 125.231C403.382 131.746 401.363 138.124 398.884 144.308C398.884 144.308 382.184 128.645 407.215 93.4376C432.245 58.2298 446.17 45.5123 446.17 45.5123C446.17 45.5123 457.291 129.628 423 151.139C423 151.139 430.4 124.721 426.234 105.686Z" fill="white"/>
</g>
</svg>
