<svg width="294" height="130" viewBox="0 0 294 130" fill="none" xmlns="http://www.w3.org/2000/svg">
<g clip-path="url(#clip0)">
<path fill-rule="evenodd" clip-rule="evenodd" d="M14.6985 40.8693C14.615 39.2341 14.4988 37.2525 14.5152 35.8005H14.4659C14.0664 37.1716 13.5659 38.6401 12.9667 40.2589L10.8671 45.9559H9.70041L7.7841 40.3588C7.2178 38.7071 6.75137 37.1881 6.41766 35.784H6.38479C6.35192 37.2538 6.2685 39.2189 6.15221 40.9856L5.83619 46.0216H4.36862L5.20163 34.2688H7.14954L9.16571 39.9493C9.67133 41.4026 10.0657 42.6904 10.3653 43.9124H10.4159C10.7154 42.7232 11.1326 41.4355 11.666 39.9493L13.782 34.2637H15.7312L16.4644 46.0166H14.9652L14.6985 40.8693Z" fill="white"/>
<path fill-rule="evenodd" clip-rule="evenodd" d="M23.7263 46.1532L23.5999 45.0664H23.5481C23.2297 45.4783 22.8191 45.8097 22.3493 46.034C21.8795 46.2584 21.3635 46.3693 20.843 46.358C20.4982 46.3864 20.1512 46.3427 19.8241 46.2298C19.497 46.1169 19.1971 45.9372 18.9433 45.7021C18.6894 45.467 18.4873 45.1816 18.3497 44.8642C18.2122 44.5468 18.1422 44.2042 18.1443 43.8583C18.1443 41.7529 20.0517 40.6143 23.4659 40.632V40.4462C23.4982 40.1746 23.4683 39.8993 23.3786 39.641C23.2888 39.3827 23.1416 39.1482 22.9478 38.9551C22.7541 38.7621 22.5191 38.6156 22.2604 38.5267C22.0018 38.4378 21.7263 38.4088 21.4548 38.4419C20.642 38.4448 19.8452 38.668 19.1492 39.0877L18.7851 38.0514C19.6685 37.5419 20.6728 37.28 21.6925 37.2932C24.3975 37.2932 25.0561 39.1104 25.0561 40.843V44.087C25.0454 44.786 25.0919 45.4846 25.1952 46.176H23.7213L23.7263 46.1532ZM23.4836 41.72C21.7329 41.6859 19.7218 41.9917 19.7218 43.6725C19.707 43.8762 19.7363 44.0807 19.8079 44.2721C19.8794 44.4634 19.9915 44.637 20.1364 44.781C20.2813 44.925 20.4556 45.036 20.6473 45.1064C20.8391 45.1768 21.0438 45.205 21.2475 45.189C21.7145 45.2055 22.1746 45.0727 22.561 44.81C22.9474 44.5473 23.24 44.1684 23.3964 43.7281C23.4502 43.5648 23.4796 43.3945 23.4836 43.2226V41.72Z" fill="white"/>
<path fill-rule="evenodd" clip-rule="evenodd" d="M29.0681 41.4268H29.101C29.3146 41.1286 29.6066 40.7633 29.8417 40.4651L32.3092 37.5484H34.1509L30.9111 41.0287L34.6123 46.0167H32.7541L29.8594 41.9563L29.0694 42.8409V46.023H27.5513V33.5916H29.0681V41.4268Z" fill="white"/>
<path fill-rule="evenodd" clip-rule="evenodd" d="M36.722 42.1104C36.6791 42.5037 36.7227 42.9017 36.8496 43.2765C36.9766 43.6513 37.1839 43.9938 37.4571 44.2801C37.7302 44.5665 38.0627 44.7897 38.4311 44.9342C38.7996 45.0787 39.1951 45.1411 39.5902 45.1168C40.3886 45.1375 41.1822 44.9867 41.9173 44.6745L42.1802 45.8119C41.3041 46.1939 40.3548 46.3794 39.3993 46.3553C38.829 46.3797 38.2601 46.2808 37.7315 46.0656C37.2028 45.8503 36.7268 45.5236 36.3359 45.1078C35.9449 44.692 35.6482 44.1968 35.4659 43.656C35.2837 43.1152 35.2202 42.5415 35.2797 41.9739C35.2797 39.3579 36.7713 37.2867 39.2135 37.2867C41.9514 37.2867 42.6719 39.7838 42.6719 41.3799C42.6697 41.6242 42.6532 41.8681 42.6226 42.1104H36.722ZM41.1968 40.9894C41.2132 39.9873 40.8037 38.4253 39.082 38.4253C37.5411 38.4253 36.8699 39.9026 36.7385 40.9894H41.1968Z" fill="white"/>
<path fill-rule="evenodd" clip-rule="evenodd" d="M53.0284 46.1532L52.9133 45.0664H52.864C52.5702 45.4729 52.1825 45.8025 51.7341 46.0274C51.2856 46.2522 50.7895 46.3656 50.2879 46.3579C49.9507 46.3783 49.613 46.3282 49.2963 46.2108C48.9796 46.0934 48.6908 45.9113 48.4485 45.6761C48.2061 45.4409 48.0154 45.1577 47.8885 44.8448C47.7617 44.5318 47.7015 44.1958 47.7118 43.8583C47.7118 41.7529 49.5282 40.6142 52.7806 40.6319V40.4462C52.8171 40.1822 52.7936 39.9133 52.7116 39.6597C52.6296 39.4061 52.4914 39.1743 52.3073 38.9816C52.1232 38.7889 51.8979 38.6402 51.6482 38.5468C51.3986 38.4533 51.131 38.4175 50.8656 38.4419C50.0875 38.4461 49.3264 38.67 48.6699 39.0876L48.3236 38.0514C49.1589 37.5432 50.1204 37.2805 51.0982 37.2931C53.6743 37.2931 54.3013 39.1104 54.3013 40.843V44.087C54.289 44.7855 54.3313 45.484 54.4277 46.176H53.0246L53.0284 46.1532ZM52.797 41.72C51.1298 41.6859 49.2147 41.9917 49.2147 43.6725C49.1951 43.871 49.2187 44.0714 49.2838 44.2599C49.3489 44.4484 49.4541 44.6206 49.592 44.7647C49.73 44.9088 49.8975 45.0213 50.0831 45.0945C50.2687 45.1678 50.4679 45.2 50.6671 45.189C51.1204 45.1988 51.5647 45.0619 51.9337 44.7986C52.3028 44.5353 52.5768 44.1598 52.7149 43.7281C52.7659 43.5643 52.7936 43.3941 52.797 43.2226V41.72Z" fill="white"/>
<path fill-rule="evenodd" clip-rule="evenodd" d="M217.056 99.1937C217.056 99.1937 222.058 84.9968 256.3 87.6747C290.542 90.3525 294 91.893 294 91.893C294 91.893 241.68 137.165 217.056 115.3C217.056 115.3 240.522 119.904 256.3 100.332C256.3 100.332 250.738 97.202 240.992 96.6674C237.032 96.4682 233.063 96.8006 229.192 97.6557C225.208 98.5695 221.142 99.0847 217.056 99.1937Z" fill="#F1AD32"/>
<path fill-rule="evenodd" clip-rule="evenodd" d="M210.325 86.2479C210.325 86.2479 221.714 93.1986 243.555 72.0081C265.397 50.8177 264.425 44.6771 264.425 44.6771C264.425 44.6771 206.841 48.1524 201.264 75.146C201.264 75.146 214.681 58.7173 236.437 63.2858C234.462 67.5559 231.609 71.3616 228.063 74.4547C225.477 76.8202 222.587 78.8289 219.468 80.4272C216.234 82.0586 213.171 84.0085 210.325 86.2479Z" fill="#F1AD32"/>
<path fill-rule="evenodd" clip-rule="evenodd" d="M179.319 52.6299C179.319 52.6299 172.801 43.7837 189.662 27.24C206.524 10.6963 213.023 5.71088 213.023 5.71088C213.023 5.71088 210.734 36.4704 203.448 51.0856C202.261 53.2603 200.707 55.2134 198.853 56.8584C195.796 59.5603 195.411 61.4736 195.411 61.4736C195.411 61.4736 193.489 57.6305 197.717 43.7811C201.945 29.9318 199.254 27.6217 192.737 35.3229C186.219 43.0242 181.619 47.2425 179.319 52.6299Z" fill="#F1AD32"/>
<path fill-rule="evenodd" clip-rule="evenodd" d="M162.693 49.0433C162.693 49.0433 175.862 37.9224 156.099 0C156.099 0 136.337 33.7154 149.118 47.5066C149.118 47.5066 151.823 28.735 155.711 24.5229C155.711 24.5229 161.138 26.0609 161.915 37.5395C161.915 37.5597 161.915 48.2914 162.693 49.0433Z" fill="#F1AD32"/>
<path fill-rule="evenodd" clip-rule="evenodd" d="M201.363 113.6C201.363 113.6 209.453 78.5114 184.424 62.3305C184.424 62.3305 163.23 44.2147 138.202 56.9305C134.885 59.2048 131.79 61.7857 128.956 64.6393C125.881 68.1045 125.494 68.4912 123.948 68.4912C123.948 68.4912 121.629 73.1165 122.015 73.8912C122.402 74.6658 125.091 76.2127 128.958 72.3431C132.824 68.4735 144.758 56.5311 159.397 60.771C174.036 65.0109 196.761 73.1013 189.063 111.268C189.025 111.279 192.875 116.679 201.363 113.6Z" fill="#F1AD32"/>
<path fill-rule="evenodd" clip-rule="evenodd" d="M42.3559 69.5929C42.3559 69.5929 47.7471 66.1341 35.0497 66.9075C22.3523 67.6809 8.11269 78.0714 4.63654 99.9986C1.16039 121.926 16.1913 118.466 16.1913 118.466C16.1913 118.466 29.6598 118.466 45.4465 87.3055C61.2333 56.1454 66.6232 43.8227 72.3835 36.9049C78.1438 29.9872 86.2388 21.1233 91.6287 22.2822C91.6287 22.2822 93.947 24.2132 90.4696 27.2853C90.4696 27.2853 88.9249 27.2853 88.9249 25.3543C88.9249 25.3543 75.4564 27.6708 69.2929 56.5144C69.2929 56.5144 65.8332 81.5302 65.4476 83.8303C65.4476 83.8303 78.1438 57.2916 93.157 43.436C108.17 29.5803 120.481 23.0379 128.945 20.7379C128.945 20.7379 133.564 19.579 133.564 22.2822C133.564 24.9853 130.104 25.741 130.104 25.741C130.104 25.741 130.49 22.6689 127.417 23.81C124.344 24.9512 96.6331 36.8885 88.5394 60.36C88.5394 60.36 75.4564 87.2891 81.6035 108.074C87.7506 128.859 108.541 137.706 141.255 106.915L142.8 108.074C142.8 108.074 122.783 129.614 100.075 130C100.075 130 59.2829 119.994 83.1469 61.5176C83.1469 61.5176 71.979 70.7518 56.2099 111.146L53.5226 109.987C53.5226 109.987 59.6861 87.2891 60.4584 78.8271C61.2308 70.3651 65.0773 58.429 65.8496 54.5834C66.6219 50.7379 54.6817 78.055 43.5138 96.9087C43.5138 96.9087 26.5856 126.928 9.25792 121.538C-8.06973 116.148 4.25353 87.2904 4.25353 87.2904C4.25353 87.2904 13.49 68.4366 33.8943 64.2056C33.8943 64.2056 46.5905 61.8892 48.9075 66.522C51.2245 71.1549 42.744 71.1397 42.744 71.1397L42.3559 69.5929Z" fill="#339CFE"/>
<path fill-rule="evenodd" clip-rule="evenodd" d="M117.817 41.342C117.817 41.342 124.722 42.4933 126.628 48.9877C127.264 51.5339 128.097 54.0268 129.119 56.4438C129.119 56.4438 136.024 50.3171 125.675 36.5449C115.326 22.7726 109.576 17.8036 109.576 17.8036C109.576 17.8036 104.978 50.7076 119.156 59.1216C119.155 59.1216 116.096 48.788 117.817 41.342Z" fill="#F1AD32"/>
<path fill-rule="evenodd" clip-rule="evenodd" d="M98.4925 73.5625C98.4925 73.5625 96.1249 76.9064 98.4925 77.6532C100.86 78.4001 102.817 77.6532 102.817 75.4139C102.817 73.1745 101.232 71.3396 98.4925 73.5625Z" fill="#339CFE"/>
<path fill-rule="evenodd" clip-rule="evenodd" d="M188.664 82.2494C188.664 82.2494 182.887 83.4057 177.883 92.6197C172.878 101.834 168.646 102.224 168.646 102.224C168.646 102.224 164.027 104.151 164.414 97.2311C164.373 95.7175 164.661 94.213 165.259 92.8216C165.856 91.4302 166.748 90.1851 167.874 89.1722C171.721 85.7209 186.734 71.5139 190.193 64.5937C193.653 57.6734 204.049 44.6265 199.43 33.4993C199.43 33.4993 193.653 28.8917 176.338 59.9873C176.338 59.9873 165.557 80.7279 160.553 93.0089C160.553 93.0089 158.621 98.3874 150.929 102.224C150.929 102.224 146.31 104.537 147.084 96.4602C147.693 92.6161 149.594 89.0944 152.475 86.4766C152.475 86.4766 157.094 82.6399 156.707 85.3203C156.432 87.0495 155.912 88.7308 155.163 90.3133L156.707 91.8551C156.707 91.8551 163.643 87.2475 160.553 83.4108C160.553 83.4108 157.48 78.8032 148.629 85.7222C146.336 88.2676 144.394 91.1075 142.852 94.1665C141.433 96.9685 139.309 99.3531 136.689 101.086C136.689 101.086 134.001 103.397 135.144 99.5437C136.287 95.6906 137.831 90.714 137.831 90.714C137.831 90.714 138.99 86.8772 141.676 87.2627C141.994 86.4085 142.054 85.4797 141.848 84.592C141.641 83.7042 141.179 82.8966 140.517 82.2696C140.517 82.2696 137.83 81.4987 137.058 83.0405C137.058 83.0405 132.053 79.9747 126.277 84.9677C122.869 88.052 120.006 91.6881 117.807 95.7234C116.59 97.9938 114.88 99.9632 112.803 101.487C112.803 101.487 110.116 103.413 111.258 100.331C112.087 97.697 113.116 95.1297 114.334 92.6513C114.334 92.6513 117.021 89.2 113.947 87.2728C110.873 85.3456 110.102 85.731 110.102 85.731C110.102 85.731 111.261 81.5089 110.102 79.5829C109.451 79.0485 108.635 78.7564 107.792 78.7564C106.95 78.7564 106.134 79.0485 105.483 79.5829C103.166 81.5101 104.324 84.9614 106.255 86.5019C106.255 86.5019 105.483 91.8791 97.0187 99.5526C97.0187 99.5526 93.9458 102.618 94.3313 99.9317C94.7169 97.245 97.4042 88.4051 97.4042 88.4051C97.4042 88.4051 97.7898 86.8634 100.864 86.8634C101.18 86.0089 101.239 85.0806 101.033 84.1931C100.827 83.3057 100.365 82.4981 99.7048 81.8703C97.3878 79.5576 94.3136 84.9361 93.5413 87.2488C92.769 89.5614 86.6055 103.752 90.8539 105.678C95.1024 107.604 100.863 99.5298 104.322 94.9222C105.97 92.9069 107.389 90.7152 108.554 88.3874C108.655 88.2833 108.775 88.2005 108.907 88.144C109.04 88.0874 109.183 88.0582 109.327 88.0582C109.472 88.0582 109.615 88.0874 109.748 88.144C109.88 88.2005 110 88.2833 110.1 88.3874C110.873 89.1583 110.873 90.3146 109.714 92.6096C108.554 94.9045 103.165 103.751 107.397 106.046C111.629 108.341 116.633 100.668 116.633 100.668C116.633 100.668 116.248 106.432 120.093 106.046C123.304 105.901 126.336 104.527 128.562 102.209C130.879 99.8963 130.107 102.588 130.107 102.588C130.107 102.588 129.721 106.81 133.18 106.425C136.638 106.039 142.028 99.5058 142.028 99.5058C142.028 99.5058 142.028 106.425 147.032 106.425C152.037 106.425 155.501 104.112 158.586 100.275C158.586 100.275 159.745 99.1191 159.745 100.275C159.745 101.432 160.517 106.039 165.136 106.039C169.755 106.039 173.213 103.359 176.304 99.8913C176.304 99.8913 176.304 106.426 182.853 106.426C184.331 106.356 185.779 105.978 187.103 105.318C188.428 104.657 189.6 103.728 190.545 102.589L190.93 97.5963C190.93 97.5963 187.471 102.589 183.994 102.204C183.57 102.211 183.15 102.119 182.768 101.936C182.385 101.753 182.05 101.483 181.79 101.148C181.529 100.814 181.35 100.423 181.266 100.007C181.182 99.5916 181.196 99.1621 181.307 98.7526C181.307 98.7526 189.776 94.9159 191.316 92.6045C192.901 90.3247 197.9 80.3399 188.664 82.2494ZM181.744 56.9177C185.59 49.6297 193.298 37.3297 195.598 37.3297C197.899 37.3297 192.526 56.1443 185.59 64.9728C178.654 73.8013 172.121 82.631 169.048 84.1728C169.048 84.1766 177.899 64.2057 181.744 56.9177ZM129.784 97.2311C129.784 97.2311 126.325 102.61 122.092 101.839C122.092 101.839 119.775 101.068 122.865 94.5507C125.954 88.0336 131.334 83.4095 133.647 84.9463C133.631 84.9425 137.09 87.6279 129.784 97.2273V97.2311ZM189.049 90.3285C186.762 92.3846 184.167 94.0695 181.358 95.3216C181.358 95.3216 182.517 88.7868 187.521 85.338C192.526 81.8893 190.595 89.1697 189.049 90.3247V90.3285Z" fill="#339CFE"/>
</g>
<defs>
<clipPath id="clip0">
<rect width="294" height="130" fill="white"/>
</clipPath>
</defs>
</svg>
